<svg version="1.1" xmlns="http://www.w3.org/2000/svg" style="display: block;" viewBox="0 0 2048 1509" width="1216" height="896" preserveAspectRatio="none" xmlns:c2pa="http://c2pa.org/manifest"><metadata><c2pa:manifest>AAAMZ2p1bWIAAAAeanVtZGMycGEAEQAQgAAAqgA4m3EDYzJwYQAAAAxBanVtYgAAAEdqdW1kYzJtYQARABCAAACqADibcQN1cm46YzJwYTphODU1NjU2MC0yYjZhLTRiNTgtYTM2Ni1mZTdhYTgzNTdhMzYAAAAB4mp1bWIAAAApanVtZGMyYXMAEQAQgAAAqgA4m3EDYzJwYS5hc3NlcnRpb25zAAAAAO1qdW1iAAAAQWp1bWRjYm9yABEAEIAAAKoAOJtxE2MycGEuYWN0aW9ucy52MgAAAAAYYzJzaLBEgAUf4p93lH0U2WRGju0AAACkY2JvcqFnYWN0aW9uc4GjZmFjdGlvbmxjMnBhLmNyZWF0ZWRxZGlnaXRhbFNvdXJjZVR5cGV4Rmh0dHA6Ly9jdi5pcHRjLm9yZy9uZXdzY29kZXMvZGlnaXRhbHNvdXJjZXR5cGUvdHJhaW5lZEFsZ29yaXRobWljTWVkaWFrZGVzY3JpcHRpb252Q3JlYXRlZCBieSBSZWNyYWZ0IEFJLgAAAMRqdW1iAAAAQGp1bWRjYm9yABEAEIAAAKoAOJtxE2MycGEuaGFzaC5kYXRhAAAAABhjMnNoS2VZULG0Frn9H8m9neo4lAAAAHxjYm9ypWpleGNsdXNpb25zgaJlc3RhcnQY2mZsZW5ndGgZEIxkbmFtZW5qdW1iZiBtYW5pZmVzdGNhbGdmc2hhMjU2ZGhhc2hYIMpJqvnujgBIllJdCTCS/22PJfMfSY9+SzBmw0lTCAZbY3BhZEkAAAAAAAAAAAAAAAI0anVtYgAAACdqdW1kYzJjbAARABCAAACqADibcQNjMnBhLmNsYWltLnYyAAAAAgVjYm9ypmppbnN0YW5jZUlEeCx4bXA6aWlkOjIyMjFiZTk1LTJhZDMtNDZiZS1iYTE1LTAzYTY4NmM4MzNhNHRjbGFpbV9nZW5lcmF0b3JfaW5mb6NkbmFtZWpyZWNyYWZ0LmFpZ3ZlcnNpb254KDgxY2U4MmUyYzVjM2NiZmJlOGM2ZmJlMTc5ZDVmOGQ5MWM0MDljZTF3b3JnLmNvbnRlbnRhdXRoLmMycGFfcnNmMC45MC43aXNpZ25hdHVyZXhNc2VsZiNqdW1iZj0vYzJwYS91cm46YzJwYTphODU1NjU2MC0yYjZhLTRiNTgtYTM2Ni1mZTdhYTgzNTdhMzYvYzJwYS5zaWduYXR1cmVyY3JlYXRlZF9hc3NlcnRpb25zgqJjdXJseCpzZWxmI2p1bWJmPWMycGEuYXNzZXJ0aW9ucy9jMnBhLmFjdGlvbnMudjJkaGFzaFggcGRlFARNTRk/sTp03rxTJ5Mzfb73hGyfbP8xOqgr5omiY3VybHgpc2VsZiNqdW1iZj1jMnBhLmFzc2VydGlvbnMvYzJwYS5oYXNoLmRhdGFkaGFzaFggkafZBPZmpttj2UQq2OmsjVsPgDM1yv2EKtdZ5/iq4/ZoZGM6dGl0bGV4GlJlY3JhZnQgQUkgR2VuZXJhdGVkIEltYWdlY2FsZ2ZzaGEyNTYAAAfcanVtYgAAAChqdW1kYzJjcwARABCAAACqADibcQNjMnBhLnNpZ25hdHVyZQAAAAesY2JvctKEWQOwogEmGCGCWQHnMIIB4zCCAYmgAwIBAgIJALfeWmNDUW56MAoGCCqGSM49BAMCMEAxHzAdBgNVBAMMFlJlY3JhZnQgU3RhZ2luZyBEZXYgQ0ExEDAOBgNVBAoMB1JlY3JhZnQxCzAJBgNVBAYTAlVTMB4XDTI2MDYxMjE5NDM1MFoXDTI3MDYxMjE5NDM1MFowNzELMAkGA1UEBhMCVVMxEzARBgNVBAoTClJlY3JhZnQgQUkxEzARBgNVBAMTCnJlY3JhZnQuYWkwWTATBgcqhkjOPQIBBggqhkjOPQMBBwNCAARKaTVbACsg/DeG3LeOxYdID/VA6EFG73E6Oknb+KIiCFJygRUz4ueN2z/t2qYb6CIUvS8RvgOiiClfoqsYtw81o3UwczAMBgNVHRMBAf8EAjAAMA4GA1UdDwEB/wQEAwIGwDATBgNVHSUEDDAKBggrBgEFBQcDBDAdBgNVHQ4EFgQULzHpBen96SL1y4IPHa8MkMshXf0wHwYDVR0jBBgwFoAUAgsqOBrKqpdK//m/kxZo7ZR4ebcwCgYIKoZIzj0EAwIDSAAwRQIgU8hKW0aXvvk8SQgVFNkax69Ym9ae8GsT2RZTQw+B51ACIQC0D4BkEoRD4N0r2ZRkNy0HZaW3WICy/QZGN95ilF4yzFkBvTCCAbkwggFfoAMCAQICCQCc+Wg7T6ATbzAKBggqhkjOPQQDAjBAMR8wHQYDVQQDDBZSZWNyYWZ0IFN0YWdpbmcgRGV2IENBMRAwDgYDVQQKDAdSZWNyYWZ0MQswCQYDVQQGEwJVUzAeFw0yNjA2MTIxOTQwMTZaFw0yODA2MTExOTQwMTZaMEAxHzAdBgNVBAMMFlJlY3JhZnQgU3RhZ2luZyBEZXYgQ0ExEDAOBgNVBAoMB1JlY3JhZnQxCzAJBgNVBAYTAlVTMFkwEwYHKoZIzj0CAQYIKoZIzj0DAQcDQgAEQ9IQBlcVbKaKPYrQSfOhL/00s7xUDC7RinIuLO/I1k99y9yh6oWF9kPxaP+tx1v1PeOL3yrVquJ730H0ZGiDyqNCMEAwDwYDVR0TAQH/BAUwAwEB/zAOBgNVHQ8BAf8EBAMCAYYwHQYDVR0OBBYEFAILKjgayqqXSv/5v5MWaO2UeHm3MAoGCCqGSM49BAMCA0gAMEUCIFQwNImLlYDeQhjgF+ZiqTbgcuzSqmOJw3Q2lQ/hu83FAiEA9O8cLm/xfoVLqB4jtdbuHzi3WL+p2RN+DRGkwpYswVuhY3BhZFkDpAAAAAAAAAAAAAAAAAAAAAAAAAAAAAAAAAAAAAAAAAAAAAAAAAAAAAAAAAAAAAAAAAAAAAAAAAAAAAAAAAAAAAAAAAAAAAAAAAAAAAAAAAAAAAAAAAAAAAAAAAAAAAAAAAAAAAAAAAAAAAAAAAAAAAAAAAAAAAAAAAAAAAAAAAAAAAAAAAAAAAAAAAAAAAAAAAAAAAAAAAAAAAAAAAAAAAAAAAAAAAAAAAAAAAAAAAAAAAAAAAAAAAAAAAAAAAAAAAAAAAAAAAAAAAAAAAAAAAAAAAAAAAAAAAAAAAAAAAAAAAAAAAAAAAAAAAAAAAAAAAAAAAAAAAAAAAAAAAAAAAAAAAAAAAAAAAAAAAAAAAAAAAAAAAAAAAAAAAAAAAAAAAAAAAAAAAAAAAAAAAAAAAAAAAAAAAAAAAAAAAAAAAAAAAAAAAAAAAAAAAAAAAAAAAAAAAAAAAAAAAAAAAAAAAAAAAAAAAAAAAAAAAAAAAAAAAAAAAAAAAAAAAAAAAAAAAAAAAAAAAAAAAAAAAAAAAAAAAAAAAAAAAAAAAAAAAAAAAAAAAAAAAAAAAAAAAAAAAAAAAAAAAAAAAAAAAAAAAAAAAAAAAAAAAAAAAAAAAAAAAAAAAAAAAAAAAAAAAAAAAAAAAAAAAAAAAAAAAAAAAAAAAAAAAAAAAAAAAAAAAAAAAAAAAAAAAAAAAAAAAAAAAAAAAAAAAAAAAAAAAAAAAAAAAAAAAAAAAAAAAAAAAAAAAAAAAAAAAAAAAAAAAAAAAAAAAAAAAAAAAAAAAAAAAAAAAAAAAAAAAAAAAAAAAAAAAAAAAAAAAAAAAAAAAAAAAAAAAAAAAAAAAAAAAAAAAAAAAAAAAAAAAAAAAAAAAAAAAAAAAAAAAAAAAAAAAAAAAAAAAAAAAAAAAAAAAAAAAAAAAAAAAAAAAAAAAAAAAAAAAAAAAAAAAAAAAAAAAAAAAAAAAAAAAAAAAAAAAAAAAAAAAAAAAAAAAAAAAAAAAAAAAAAAAAAAAAAAAAAAAAAAAAAAAAAAAAAAAAAAAAAAAAAAAAAAAAAAAAAAAAAAAAAAAAAAAAAAAAAAAAAAAAAAAAAAAAAAAAAAAAAAAAAAAAAAAAAAAAAAAAAAAAAAAAAAAAAAAAAAAAAAAAAAAAAAAAAAAAAAAAAAAAAAAAAAAAAAAAAAAAAAAAAAAAAAAAAAAAAAAAAAAAAAAAAAAAAAAAAAAAAAAAAAAAAAAAAAAAAAAAA9lhAP5oB8Hj5sa7HwTPoE7FH4s4RR0KQf6zvkD4nQStH+nUs5taYDwxdOQbBFyPcwDHF7/2upau4m/W+6yFYV6u/Vg==</c2pa:manifest></metadata>
<path transform="translate(0,0)" fill="rgb(255,255,255)" d="M 0 0 L 2048 0 L 2048 1509 L 0 1509 L 0 0 z"/>
<path transform="translate(0,0)" fill="rgb(31,31,31)" d="M 1016.53 899.456 C 1098.35 892.113 1170.59 952.591 1177.76 1034.43 C 1184.92 1116.27 1124.28 1188.37 1042.43 1195.35 C 960.828 1202.31 888.997 1141.9 881.858 1060.32 C 874.719 978.74 934.967 906.776 1016.53 899.456 z"/>
<path transform="translate(0,0)" fill="rgb(255,255,255)" d="M 1017.41 933.046 C 1080.28 926.201 1136.86 971.456 1143.99 1034.29 C 1151.12 1097.13 1106.13 1153.91 1043.32 1161.33 C 980.112 1168.8 922.876 1123.45 915.697 1060.21 C 908.518 996.961 954.132 939.934 1017.41 933.046 z"/>
<path transform="translate(0,0)" fill="rgb(31,31,31)" d="M 813.814 310.869 L 972.755 311.057 L 1035.05 311.132 C 1066.79 311.188 1093.1 310.012 1123.89 319.524 C 1168.22 332.879 1205.28 363.563 1226.67 404.622 C 1246.98 443.35 1251.23 494.383 1238.11 536.06 C 1223.92 581.13 1193.61 611.614 1152.51 633.032 L 1144.31 636.884 C 1119.54 612.564 1087.31 582.87 1064.26 558.178 C 1090.36 555.936 1113.87 551.558 1133.56 532.174 C 1146.67 519.409 1154 501.852 1153.88 483.556 C 1154 464.559 1146.46 446.316 1132.96 432.95 C 1103.07 403.304 1063.22 409.676 1024.43 409.671 L 914.457 409.83 C 881.802 379.595 845.873 342.397 813.814 310.869 z"/>
<path transform="translate(0,0)" fill="rgb(225,6,0)" d="M 796.93 326.583 C 802.829 331.249 822.877 351.723 829.12 357.848 L 907.585 435.722 C 999.214 526.67 1091.63 616.822 1184.82 706.168 C 1192.65 713.656 1246.68 764.471 1247.36 768.421 L 1114.53 768.891 C 1047.09 699.551 976.183 633.108 907.526 564.977 C 870.603 528.337 832.768 492.839 796.365 455.67 C 795.954 413.708 795.839 368.447 796.93 326.583 z"/>
<path transform="translate(0,0)" fill="rgb(31,31,31)" d="M 208.925 901.776 C 240.22 901.671 298.173 897.794 325.359 909.264 C 347.245 918.376 364.577 935.864 373.492 957.831 C 382.388 980.014 382.027 1004.84 372.49 1026.75 C 361.521 1051.33 344.373 1065 319.997 1074.36 L 397.67 1190.43 L 357.611 1190.07 L 351.974 1182.26 L 284.993 1078.79 L 243.768 1078.63 C 243.286 1115.68 243.603 1153.4 243.567 1190.52 C 232.159 1190.59 220.487 1190.34 209.057 1190.23 L 208.925 901.776 z"/>
<path transform="translate(0,0)" fill="rgb(255,255,255)" d="M 243.317 933.953 C 269.035 933.812 306.51 929.314 325.956 947.959 C 351.711 972.655 350.507 1004.99 327.882 1030.56 C 304.795 1052.28 274.181 1047.25 243.424 1047.09 L 243.317 933.953 z"/>
<path transform="translate(0,0)" fill="rgb(31,31,31)" d="M 1715.42 892.43 C 1719.22 894.999 1754.47 978.421 1759.51 989.96 L 1847.02 1190.59 C 1834.59 1190.26 1821.71 1190.52 1809.23 1190.61 C 1800.4 1171.77 1792.93 1150.15 1784.45 1131.02 C 1781.09 1123.45 1777.39 1112.76 1773.21 1106.04 L 1714.5 1106.05 L 1655.52 1105.83 C 1645.57 1132.32 1630.15 1163.61 1618.87 1190.56 C 1606.86 1190.14 1593.25 1190.37 1581.11 1190.28 C 1624.66 1090.75 1672.52 991.79 1715.42 892.43 z"/>
<path transform="translate(0,0)" fill="rgb(255,255,255)" d="M 1715.01 967.539 C 1721 974.793 1754.23 1062.52 1759.06 1075.26 L 1713.5 1075.34 L 1670.08 1075.25 C 1672.92 1067.19 1679.48 1053.52 1683 1044.97 C 1693.51 1019.09 1704.18 993.283 1715.01 967.539 z"/>
<path transform="translate(0,0)" fill="rgb(192,192,192)" d="M 796.623 488.487 C 804.443 492.929 823.614 513.064 830.81 519.938 C 851.541 539.742 871.908 561.677 893.285 580.666 L 892.092 768.768 C 860.102 768.885 828.111 768.817 796.122 768.564 L 795.969 619.072 C 795.946 576.163 795.439 531.24 796.623 488.487 z"/>
<path transform="translate(0,0)" fill="rgb(31,31,31)" d="M 656.086 901.852 C 724.247 901.538 792.409 901.594 860.569 902.02 L 753.23 1078.64 C 737.748 1104.26 720.929 1131.3 706.388 1157.31 C 722.891 1158.45 745.729 1157.79 762.583 1157.76 L 858.42 1157.79 L 858.337 1190.8 L 645.63 1190.71 C 656.595 1171.43 669.178 1151.8 680.612 1132.59 L 799.44 934.065 L 655.98 934.147 L 656.086 901.852 z"/>
<path transform="translate(0,0)" fill="rgb(31,31,31)" d="M 442.322 901.831 L 598.272 901.86 L 598.497 934.142 L 477.347 934.113 L 477.404 1020.8 C 516.238 1020.96 555.071 1020.83 593.903 1020.41 L 593.728 1050.88 L 477.263 1050.95 L 477.256 1074.5 L 477.384 1157.73 C 517.005 1158.47 559.065 1157.71 598.899 1157.75 L 598.79 1190.92 L 442.516 1190.85 L 442.322 901.831 z"/>
<path transform="translate(0,0)" fill="rgb(31,31,31)" d="M 1363.53 901.842 L 1401.12 901.89 C 1419.7 947.893 1439.65 993.921 1458.81 1039.72 C 1469.73 1065.82 1480.44 1092.52 1491.68 1118.39 C 1522.07 1047.39 1554.44 972.097 1586.32 901.903 L 1623.87 901.934 C 1616.17 920.603 1606.84 940.413 1598.5 958.935 L 1531.43 1108.85 C 1517.7 1139.43 1503.94 1168.86 1491.16 1199.87 C 1477.15 1172.39 1461.33 1131.08 1448.65 1101.62 L 1363.53 901.842 z"/>
<path transform="translate(0,0)" fill="rgb(31,31,31)" d="M 1222.2 901.719 L 1257.19 901.723 L 1257.12 1157.83 L 1383.99 1157.68 L 1383.97 1190.72 L 1222.12 1190.65 L 1222.2 901.719 z"/>
</svg>